<svg xmlns="http://www.w3.org/2000/svg" version="1.1" xmlns:xlink="http://www.w3.org/1999/xlink" xmlns:svgjs="http://svgjs.dev/svgjs" width="1500" height="1500" viewBox="0 0 1500 1500"><rect width="1500" height="1500" fill="#000000"></rect><g transform="matrix(0.6666666666666666,0,0,0.6666666666666666,249.39393939393938,486.1858918426408)"><svg viewBox="0 0 396 210" data-background-color="#ffffff" preserveAspectRatio="xMidYMid meet" height="795" width="1500" xmlns="http://www.w3.org/2000/svg" xmlns:xlink="http://www.w3.org/1999/xlink"><g id="tight-bounds" transform="matrix(1,0,0,1,0.2400000000000091,0.14391354579817062)"><svg viewBox="0 0 395.52 209.7183108605966" height="209.7183108605966" width="395.52"><g><svg viewBox="0 0 397.4975999999999 210.76690241489956" height="209.7183108605966" width="395.52"><g><rect width="397.4975999999999" height="6.455511847553437" x="0" y="115.82822414631357" fill="#ffffff" opacity="1" stroke-width="0" stroke="transparent" fill-opacity="1" class="rect-yte-0" data-fill-palette-color="secondary" rx="1%" id="yte-0" data-palette-color="#31302e"></rect></g><g transform="matrix(1,0,0,1,0.9887999999999693,139.18298166809066)"><svg viewBox="0 0 395.52 71.5839207468089" height="71.5839207468089" width="395.52"><g id="textblocktransform"><svg viewBox="0 0 395.52 71.5839207468089" height="71.5839207468089" width="395.52" id="textblock"><g><svg viewBox="0 0 395.52 71.5839207468089" height="71.5839207468089" width="395.52"><g transform="matrix(1,0,0,1,0,0)"><svg width="395.52" viewBox="2 -37.5 262.43 47.5" height="71.5839207468089" data-palette-color="#31302e"><path d="M32.15 0L22.05 0 22.05-2.75 25.45-2.75 25.45-15.85 8.4-15.85 8.4-2.75 12.1-2.75 12.1 0 2 0 2-2.75 5.25-2.75 5.25-32.25 2-32.25 2-35 12.1-35 12.1-32.25 8.4-32.25 8.4-18.85 25.45-18.85 25.45-32.25 22.05-32.25 22.05-35 31.65-35 31.65-32.25 28.6-32.25 28.6-2.75 32.15-2.75 32.15 0ZM37.65-11.2L37.65-11.2Q37.65-6.75 40.2-4.73 42.75-2.7 46.15-2.7L46.15-2.7Q48.35-2.7 50.67-3.13 53-3.55 53.75-3.9L53.75-3.9 54.4-1.55Q53.25-0.8 50.62-0.3 48 0.2 45.82 0.2 43.65 0.2 41.92-0.25 40.2-0.7 38.4-1.85 36.6-3 35.55-5.45 34.5-7.9 34.5-11.45L34.5-11.45Q34.5-18.05 37.9-21.55L37.9-21.55Q41.45-25.2 46.15-25.2 50.85-25.2 53.32-22.6 55.8-20 55.8-15.3L55.8-15.3Q55.8-14.3 55.65-13.15L55.65-13.15 37.8-13.15Q37.65-12.1 37.65-11.2ZM52.8-15.65L52.8-15.65Q52.8-18.75 50.95-20.43 49.1-22.1 46.65-22.1L46.65-22.1Q43.3-22.1 41.1-20.08 38.9-18.05 38.15-15.1L38.15-15.1 52.8-15.1Q52.8-15.4 52.8-15.65ZM66.64 0.2L66.64 0.2Q60 0.2 59.59-5.05L59.59-5.05Q59.55-5.4 59.55-5.75L59.55-5.75Q59.55-9.95 64.59-11.35L64.59-11.35Q67.4-12.05 75.4-12.95L75.4-12.95 75.4-16.8Q75.4-22.25 69.7-22.25L69.7-22.25Q65.59-22.2 61-20.35L61-20.35 60.15-22.5 60.65-22.7Q64.55-24.4 66.59-24.75 68.65-25.1 69.59-25.13 70.55-25.15 71.42-25.1 72.3-25.05 73.7-24.65 75.09-24.25 76.12-23.53 77.15-22.8 77.9-21.35 78.65-19.9 78.65-17.9L78.65-17.9 78.65-2.5 82.5-2.5 82.5 0 75.9 0 75.4-1.9Q70.9 0.2 66.64 0.2ZM67.55-2.1L67.55-2.1Q71.34-2.1 75.4-3.8L75.4-3.8 75.4-10.95Q67.9-10.7 65.7-9.95L65.7-9.95Q64-9.5 63.3-8.33 62.59-7.15 62.59-6.45 62.59-5.75 62.59-5.5L62.59-5.5Q62.75-3.7 64.14-2.9 65.55-2.1 67.55-2.1ZM88.34-35L84.99-35 84.99-37.5 91.59-37.5 91.59-2.5 95.34-2.5 95.34 0 85.24 0 85.24-2.5 88.34-2.5 88.34-35ZM107.74-2.45L107.74-2.45 109.69-2.55 109.84-0.55Q109.79-0.55 109.14-0.4L109.14-0.4Q107.64-0.05 105.79-0.05L105.79-0.05Q104.09-0.15 102.69-0.63 101.29-1.1 100.09-2.63 98.89-4.15 98.89-6.55L98.89-6.55 98.89-22.1 96.34-22.1 96.74-24.5 98.94-24.95 99.34-29.75 102.14-30 102.14-25 108.19-25 108.19-22.1 102.14-22.1 102.14-7.4Q102.14-2.45 107.74-2.45ZM138.79 0L128.69 0 128.69-2.5 131.74-2.5 131.74-17.1Q131.74-18.85 131.01-19.95 130.29-21.05 129.14-21.4L129.14-21.4Q127.24-22.05 126.04-21.95L126.04-21.95Q122.79-21.85 118.89-19.65L118.89-19.65 118.89-2.5 122.69-2.5 122.69 0 112.59 0 112.59-2.5 115.64-2.5 115.64-35 112.29-35 112.29-37.5 118.89-37.5 118.89-21.9Q125.44-26.4 130.74-24.7L130.74-24.7Q131.94-24.35 132.81-23.68 133.69-23 134.34-21.65 134.99-20.3 134.99-18.4L134.99-18.4 134.99-2.5 138.79-2.5 138.79 0ZM142.74-17.4L142.74-17.4Q142.74-25.55 146.96-30.38 151.19-35.2 157.49-35.2L157.49-35.2Q172.24-35.2 172.24-17.4L172.24-17.4Q172.24-9.75 168.46-5.05 164.69-0.35 158.84 0.15L158.84 0.15Q160.24 5.1 166.74 9.7L166.74 9.7 163.79 10Q161.29 8.3 158.89 5.65 156.49 3 155.64 0.1L155.64 0.1Q142.74-0.9 142.74-17.4ZM146.14-17.5L146.14-17.5Q146.14-2.8 157.49-2.8L157.49-2.8Q162.39-2.8 165.61-6.7 168.84-10.6 168.84-17.5L168.84-17.5Q168.84-32.2 157.49-32.2L157.49-32.2Q152.59-32.2 149.36-28.28 146.14-24.35 146.14-17.5ZM196.63 0L196.13-2.9Q191.58 0.15 187.53 0.15L187.53 0.15Q185.83 0.15 183.53-0.7L183.53-0.7Q182.03-1.25 181.13-2.78 180.23-4.3 180.23-6.6L180.23-6.6 180.23-22.5 176.73-22.5 176.73-25 183.48-25 183.48-7.6Q183.48-5.85 184.23-4.73 184.98-3.6 186.13-3.25L186.13-3.25Q188.03-2.65 189.18-2.75L189.18-2.75Q192.18-2.8 196.13-4.9L196.13-4.9 196.13-22.5 192.63-22.5 192.63-25 199.38-25 199.38-2.5 203.23-2.5 203.23 0 196.63 0ZM209.08-11.2L209.08-11.2Q209.08-6.75 211.63-4.73 214.18-2.7 217.58-2.7L217.58-2.7Q219.78-2.7 222.11-3.13 224.43-3.55 225.18-3.9L225.18-3.9 225.83-1.55Q224.68-0.8 222.06-0.3 219.43 0.2 217.25 0.2 215.08 0.2 213.36-0.25 211.63-0.7 209.83-1.85 208.03-3 206.98-5.45 205.93-7.9 205.93-11.45L205.93-11.45Q205.93-18.05 209.33-21.55L209.33-21.55Q212.88-25.2 217.58-25.2 222.28-25.2 224.75-22.6 227.23-20 227.23-15.3L227.23-15.3Q227.23-14.3 227.08-13.15L227.08-13.15 209.23-13.15Q209.08-12.1 209.08-11.2ZM224.23-15.65L224.23-15.65Q224.23-18.75 222.38-20.43 220.53-22.1 218.08-22.1L218.08-22.1Q214.73-22.1 212.53-20.08 210.33-18.05 209.58-15.1L209.58-15.1 224.23-15.1Q224.23-15.4 224.23-15.65ZM233.38-8.05L233.63-3.25Q235.73-2.6 237-2.6 238.28-2.6 238.68-2.65L238.68-2.65Q241.28-2.7 243.03-3.75 244.78-4.8 244.78-6.7 244.78-8.6 243.4-9.65 242.03-10.7 240.08-11.25 238.13-11.8 236.18-12.45 234.23-13.1 232.85-14.5 231.48-15.9 231.48-18.15L231.48-18.15Q231.48-21.35 233.93-23.28 236.38-25.2 240.13-25.2L240.13-25.2Q242.93-25.2 245.78-24.2L245.78-24.2 246.68-23.85 246.68-18.1 244.23-17.75 244.03-22Q242.03-22.3 240.68-22.3L240.68-22.3Q237.93-22.3 236.33-21.23 234.73-20.15 234.73-18.48 234.73-16.8 236.1-15.85 237.48-14.9 239.43-14.35 241.38-13.8 243.33-13.13 245.28-12.45 246.65-10.93 248.03-9.4 248.03-6.95L248.03-6.95Q248.03-3.65 245.55-1.73 243.08 0.2 238.53 0.2 233.98 0.2 230.98-1.95L230.98-1.95 230.98-7.7 233.38-8.05ZM262.33-2.45L262.33-2.45 264.28-2.55 264.43-0.55Q264.38-0.55 263.73-0.4L263.73-0.4Q262.23-0.05 260.38-0.05L260.38-0.05Q258.68-0.15 257.28-0.63 255.88-1.1 254.68-2.63 253.48-4.15 253.48-6.55L253.48-6.55 253.48-22.1 250.93-22.1 251.33-24.5 253.53-24.95 253.93-29.75 256.73-30 256.73-25 262.78-25 262.78-22.1 256.73-22.1 256.73-7.4Q256.73-2.45 262.33-2.45Z" opacity="1" transform="matrix(1,0,0,1,0,0)" fill="#ffffff" class="wordmark-text-0" data-fill-palette-color="primary" id="text-0"></path></svg></g></svg></g></svg></g></svg></g><g transform="matrix(1,0,0,1,141.49281086199812,0)"><svg viewBox="0 0 114.51197827600369 98.92897847208991" height="98.92897847208991" width="114.51197827600369"><g><svg xmlns="http://www.w3.org/2000/svg" xmlns:xlink="http://www.w3.org/1999/xlink" version="1.1" x="8" y="0" viewBox="9.884 9.907 79.849 80.187" style="enable-background:new 0 0 100 100;" xml:space="preserve" height="98.92897847208991" width="98.51197827600369" class="icon-icon-0" data-fill-palette-color="accent" id="icon-0"><path d="M14.193 90.094H39A4.32 4.32 0 0 0 43.312 85.782V35.832C43.312 33.907 42.035 32.292 40.291 31.739 40.536 31.329 40.691 30.871 40.691 30.372V26.907A3.15 3.15 0 0 0 38.113 23.817C38.071 20.525 35.383 17.858 32.081 17.858H32.041V11.907H32.673A1 1 0 1 0 32.673 9.907H20.523A1 1 0 1 0 20.523 11.907H21.155V17.858H21.115A6.04 6.04 0 0 0 15.084 23.816 3.15 3.15 0 0 0 12.506 26.906V30.371C12.506 30.862 12.626 31.334 12.836 31.76 11.127 32.333 9.884 33.932 9.884 35.831V85.781A4.314 4.314 0 0 0 14.193 90.094M23.153 11.906H30.04V17.857H23.153zM21.113 19.857H32.08C34.26 19.857 36.03 21.596 36.103 23.758H17.092A4.03 4.03 0 0 1 21.113 19.857M14.504 26.906A1.15 1.15 0 0 1 15.651 25.758H37.542A1.15 1.15 0 0 1 38.69 26.906V30.371C38.69 30.908 37.851 31.519 37.116 31.519H16.078C15.754 31.519 15.227 31.433 15.102 31.38A1.15 1.15 0 0 1 14.503 30.371zM11.882 35.832A2.314 2.314 0 0 1 14.194 33.52H39A2.315 2.315 0 0 1 41.312 35.832V85.782A2.314 2.314 0 0 1 39 88.094H14.193A2.315 2.315 0 0 1 11.881 85.782z" fill="#ffffff" data-fill-palette-color="accent"></path><path d="M86.695 49.318A4.515 4.515 0 0 0 82.185 44.808H56.672A4.516 4.516 0 0 0 52.162 49.318V51.09C52.162 52.027 52.492 52.903 53.04 53.632 50.837 53.927 49.125 55.799 49.125 58.082V85.583A4.515 4.515 0 0 0 53.635 90.093H85.223A4.516 4.516 0 0 0 89.733 85.583V58.083C89.733 55.786 88.001 53.906 85.778 53.629 86.341 52.926 86.696 52.063 86.696 51.091V49.318zM54.162 49.318A2.513 2.513 0 0 1 56.672 46.808H82.186A2.513 2.513 0 0 1 84.696 49.318V51.09C84.696 52.488 83.113 53.572 81.751 53.572H56.938C55.486 53.572 54.163 52.389 54.163 51.09zM87.732 58.083V85.584A2.513 2.513 0 0 1 85.222 88.094H53.635A2.513 2.513 0 0 1 51.125 85.584V58.083A2.513 2.513 0 0 1 53.635 55.573H85.223A2.513 2.513 0 0 1 87.732 58.083" fill="#ffffff" data-fill-palette-color="accent"></path><path d="M27.373 69.444C29.406 69.444 30.941 69.161 31.087 69.133 31.128 69.125 31.164 69.106 31.204 69.093 31.236 69.083 31.266 69.075 31.297 69.061A1 1 0 0 0 31.583 68.878L31.59 68.873C31.598 68.865 31.6 68.855 31.608 68.847A1 1 0 0 0 31.828 68.499C31.838 68.472 31.855 68.448 31.863 68.42 31.923 68.205 32.828 64.862 32.322 61.295 33.936 60.827 35.238 60.051 36.159 58.944 38.632 55.968 38.099 49.173 38.031 48.409A1 1 0 0 0 36.941 47.502C36.176 47.575 29.4 48.298 26.929 51.274A6.5 6.5 0 0 0 25.818 53.288C21.621 51.754 16.406 51.597 16.107 51.59H16.083C15.542 51.59 15.097 52.022 15.083 52.566 15.073 52.977 14.878 62.663 18.46 66.424 20.823 68.907 24.571 69.444 27.373 69.444M19.907 65.045C18.014 63.057 17.334 58.427 17.142 55.179L28.79 67.389C26.349 67.555 22.178 67.431 19.907 65.045M28.334 57.021C30.765 59.573 30.623 63.698 30.288 66.062L18.561 53.769C21.796 54.115 26.428 55.018 28.334 57.021M31.891 59.346A9.8 9.8 0 0 0 30.71 56.831L36.113 50.989C36.087 53.29 35.78 56.272 34.619 57.668 33.983 58.434 33.057 58.988 31.891 59.346M28.466 52.554C29.555 51.244 32.17 50.41 34.357 49.942L29.403 55.299A9 9 0 0 0 27.653 54.101C27.845 53.495 28.116 52.975 28.466 52.554" fill="#ffffff" data-fill-palette-color="accent"></path><path d="M80.505 61.094A1 1 0 0 0 79.772 60.867C79.007 60.94 72.231 61.663 69.758 64.639 69.285 65.209 68.917 65.886 68.649 66.652 64.452 65.118 59.237 64.961 58.938 64.954H58.914C58.373 64.954 57.928 65.386 57.914 65.93 57.904 66.341 57.709 76.027 61.291 79.788 63.655 82.27 67.403 82.808 70.205 82.808 72.238 82.808 73.773 82.525 73.919 82.497 73.96 82.489 73.996 82.47 74.036 82.457 74.068 82.447 74.098 82.439 74.129 82.425A1 1 0 0 0 74.415 82.242L74.422 82.237C74.43 82.229 74.432 82.219 74.44 82.211A1 1 0 0 0 74.66 81.863C74.67 81.836 74.687 81.812 74.695 81.784 74.755 81.569 75.66 78.226 75.154 74.659 76.768 74.191 78.07 73.415 78.991 72.308 81.464 69.332 80.931 62.537 80.863 61.773A1 1 0 0 0 80.505 61.094M71.297 65.917C72.386 64.606 75.002 63.772 77.189 63.304L72.235 68.662A9 9 0 0 0 70.485 67.464C70.677 66.858 70.948 66.338 71.297 65.917M61.394 67.133C64.63 67.48 69.263 68.384 71.167 70.384H71.166C73.597 72.936 73.455 77.061 73.12 79.425zM62.739 78.408C60.846 76.42 60.166 71.79 59.973 68.542L71.621 80.751C69.18 80.918 65.011 80.794 62.739 78.408M74.723 72.709A9.8 9.8 0 0 0 73.542 70.194L78.945 64.352C78.919 66.653 78.612 69.635 77.451 71.031 76.815 71.797 75.889 72.351 74.723 72.709" fill="#ffffff" data-fill-palette-color="accent"></path></svg></g></svg></g><g><rect width="64.95969086199815" height="6.455511847553437" y="91.47346662453647" x="256.0047891380018" fill="#ffffff" data-fill-palette-color="secondary"></rect><rect width="64.95969086199815" height="6.455511847553437" y="91.47346662453647" x="76.53311999999997" fill="#ffffff" data-fill-palette-color="secondary"></rect></g></svg></g><defs></defs></svg><rect width="395.52" height="209.7183108605966" fill="none" stroke="none" visibility="hidden"></rect></g></svg></g></svg>